# xmcd
#
# Track frame offsets: 
#        150
#        20930
#        36180
#        50519
#        67314
#        86615
#
# Disc length: 1350 seconds
#
# Revision: 0
# Processed by: cddbd v1.4PL0 Copyright (c) Steve Scherf et al.
# Submitted via: ExactAudioCopy v0.95a3
#
DISCID=55054406
DTITLE=Plaster - o co chodzi?
DYEAR=1900
DGENRE=Blues
TTITLE0=Byl Sobie Czlowiek
TTITLE1=Spotkania
TTITLE2=Daj Mi!
TTITLE3=508 Boogie
TTITLE4=Karczma
TTITLE5=O Co Chodzi?
EXTD=
EXTT0=
EXTT1=
EXTT2=
EXTT3=
EXTT4=
EXTT5=
PLAYORDER=
